{"title":"Vamperifica 3D (2011) QHD Half-SBS for 3DTV - EVO3D","uid":7722109,"size":1900649617,"categoryP":"video","categoryS":"3d","magnet":"?xt=urn:btih:5b65167d4eab291060fd8f18720d2bc28a773f09&amp;dn=Vamperifica+3D+%282011%29+QHD+Half-SBS+for+3DTV+-+EVO3D&amp;tr=udp%3A%2F%2Ftracker.openbittorrent.com%3A80&amp;tr=udp%3A%2F%2Fopen.demonii.com%3A1337&amp;tr=udp%3A%2F%2Ftracker.coppersurfer.tk%3A6969&amp;tr=udp%3A%2F%2Fexodus.desync.com%3A6969","seeders":0,"leechers":1,"uploader":"StoneCold448","files":1,"time":1350102379,"description":"This is Vamperifica 3D (2012) QHD Half-SBS for 3DTV - EVO 3D \nmade specifically for 3DTV's and handheld 3D Devices alike with Auto-3D Enabled\n(no more putting your device into 3D mode, \nit will read this file like a disc and do it for you)\nEncoded by the group --SICK-FLIX-- bringing EVO 3D users more content than amazon\nOver 500 Real 3D Titles from all over the Globe\n\nComplete name : Vamperifica 3D (2011) QHD Half-SBS for 3DTV - EVO3D.mp4\nFormat : MPEG-4\nFormat profile : Base Media / Version 2\nCodec ID : mp42\nFile size : 1.77 GiB\nDuration : 1h 39mn\nOverall bit rate mode : Variable\nOverall bit rate : 2 536 Kbps\nEncoded date : UTC 2012-08-13 09:14:45\nTagged date : UTC 2012-08-13 10:05:42\n\n\nVideo\nID : 1\nFormat : AVC\nFormat/Info : Advanced Video Codec\nFormat profile : &lt;a class=&quot;__cf_email__&quot; href=&quot;/cdn-cgi/l/email-protection&quot; data-cfemail=&quot;024a6b656a424e312c33&quot;&gt;[email&amp;#160;protected]&lt;/a&gt;&lt;script cf-hash='f9e31' type=&quot;text/javascript&quot;&gt;\n/* &lt;![CDATA[ */!function(){try{var t=&quot;currentScript&quot;in document?document.currentScript:function(){for(var t=document.getElementsByTagName(&quot;script&quot;),e=t.length;e--;)if(t[e].getAttribute(&quot;cf-hash&quot;))return t[e]}();if(t&amp;&amp;t.previousSibling){var e,r,n,i,c=t.previousSibling,a=c.getAttribute(&quot;data-cfemail&quot;);if(a){for(e=&quot;&quot;,r=parseInt(a.substr(0,2),16),n=2;a.length-n;n+=2)i=parseInt(a.substr(n,2),16)^r,e+=String.fromCharCode(i);e=document.createTextNode(e),c.parentNode.replaceChild(e,c)}}}catch(u){}}();/* ]]&gt; */&lt;/script&gt;\nFormat settings, CABAC : Yes\nFormat settings, ReFrames : 6 frames\nCodec ID : avc1\nCodec ID/Info : Advanced Video Coding\nDuration : 1h 39mn\nBit rate mode : Variable\nBit rate : 2 214 Kbps\nDisplay aspect ratio : 16:9\nFrame rate mode : Variable\nFrame rate : 23.976 fps\nMinimum frame rate : 23.962 fps\nMaximum frame rate : 23.981 fps\nColor space : YUV\nChroma subsampling : 4:2:0\nBit depth : 8 bits\nScan type : Progressive\nBits/(Pixel*Frame) : 0.178\nStream size : 1.54 GiB (87%)\nWriting library : x264 core 122\nEncoding settings : cabac=1 / ref=6 / deblock=1:0:0 / analyse=0x3:0x113 / me=umh / subme=7 / psy=1 / psy_rd=1.00:0.00 / mixed_ref=0 / me_range=42 / chroma_me=1 / trellis=1 / 8x8dct=1 / cqm=0 / deadzone=21,11 / fast_pskip=1 / chroma_qp_offset=-2 / threads=6 / sliced_threads=0 / nr=0 / decimate=1 / interlaced=0 / bluray_compat=0 / constrained_intra=0 / bframes=6 / b_pyramid=2 / b_adapt=2 / b_bias=0 / direct=3 / weightb=0 / open_gop=0 / weightp=2 / keyint=240 / keyint_min=24 / scenecut=40 / intra_refresh=0 / rc_lookahead=40 / rc=crf / mbtree=1 / crf=17.0 / qcomp=0.60 / qpmin=3 / qpmax=69 / qpstep=4 / frame-packing=3 / ip_ratio=1.40 / aq=1:1.00\nEncoded date : UTC 2012-08-13 09:14:45\nTagged date : UTC 2012-08-13 10:05:42\nColor primaries : BT.709-5, BT.1361, IEC 61966-2-4, SMPTE RP177\nTransfer characteristics : BT.709-5, BT.1361\nMatrix coefficients : BT.709-5, BT.1361, IEC 61966-2-4 709, SMPTE RP177\nAudio\nID : 2\nFormat : AAC\nFormat/Info : Advanced Audio Codec\nFormat profile : LC\nCodec ID : 40\nDuration : 1h 39mn\nBit rate mode : Variable\nBit rate : 319 Kbps\nMaximum bit rate : 422 Kbps\nChannel(s) : 2 channels\nChannel positions : Front: L R\nSampling rate : 48.0 KHz\nCompression mode : Lossy\nStream size : 228 MiB (13%)\nLanguage : English\nEncoded date : UTC 2012-08-13 09:14:45\nTagged date : UTC 2012-08-13 10:05:41\n\n\n\n\nIMDB = http://www.imdb.com/title/tt1691020/\n\nSeedbox Supported, for any questions please just google --SICK-FLIX--","torrent":{"xt":"urn:btih:5b65167d4eab291060fd8f18720d2bc28a773f09","amp;dn":"Vamperifica+3D+%282011%29+QHD+Half-SBS+for+3DTV+-+EVO3D","amp;tr":["udp%3A%2F%2Ftracker.openbittorrent.com%3A80","udp%3A%2F%2Fopen.demonii.com%3A1337","udp%3A%2F%2Ftracker.coppersurfer.tk%3A6969","udp%3A%2F%2Fexodus.desync.com%3A6969"],"infoHash":"5b65167d4eab291060fd8f18720d2bc28a773f09","infoHashBuffer":{"type":"Buffer","data":[91,101,22,125,78,171,41,16,96,253,143,24,114,13,43,194,138,119,63,9]},"announce":[],"urlList":[]}}